<svg xmlns="http://www.w3.org/2000/svg" width="1920" height="158" viewBox="0 0 1920 158"><g transform="translate(0 -276)"><rect width="1920" height="99" transform="translate(0 335)" fill="#e0efff"/><rect width="1920" height="59" transform="translate(0 276)" fill="#032e5b"/><path d="M1.44-14.668H6.784V9.889H19.318V14.6H1.44ZM36.41,15.076a15.486,15.486,0,0,1-7.78-1.984,14.535,14.535,0,0,1-5.5-5.442,15.078,15.078,0,0,1-2-7.7,15.078,15.078,0,0,1,2-7.7,14.392,14.392,0,0,1,5.5-5.422,15.608,15.608,0,0,1,7.78-1.965,15.608,15.608,0,0,1,7.78,1.965A14.534,14.534,0,0,1,49.71-7.753a14.965,14.965,0,0,1,2.024,7.7,14.965,14.965,0,0,1-2.024,7.7,14.68,14.68,0,0,1-5.521,5.442A15.486,15.486,0,0,1,36.41,15.076ZM26.469-.052a10.742,10.742,0,0,0,1.3,5.265,9.408,9.408,0,0,0,3.556,3.674,10.493,10.493,0,0,0,10.177,0,9.408,9.408,0,0,0,3.556-3.674,10.742,10.742,0,0,0,1.3-5.265,10.631,10.631,0,0,0-1.3-5.245A9.444,9.444,0,0,0,41.5-8.951a9.92,9.92,0,0,0-5.088-1.316,9.92,9.92,0,0,0-5.088,1.316A9.444,9.444,0,0,0,27.766-5.3,10.631,10.631,0,0,0,26.469-.052ZM70.358,15.076a14.658,14.658,0,0,1-7.5-1.965,14.069,14.069,0,0,1-5.3-5.422A15.638,15.638,0,0,1,55.624-.052,15.766,15.766,0,0,1,57.53-7.792a13.915,13.915,0,0,1,5.226-5.4,14.531,14.531,0,0,1,7.485-1.945,14.345,14.345,0,0,1,5.54,1.041,12.952,12.952,0,0,1,4.263,2.79,10.717,10.717,0,0,1,2.534,3.87L77.824-5.16a7.731,7.731,0,0,0-2.849-3.713,8.022,8.022,0,0,0-4.735-1.395,9.188,9.188,0,0,0-4.833,1.277,8.559,8.559,0,0,0-3.281,3.6A11.8,11.8,0,0,0,60.968-.052a11.594,11.594,0,0,0,1.2,5.363,8.749,8.749,0,0,0,3.34,3.615A9.291,9.291,0,0,0,70.358,10.2,9.55,9.55,0,0,0,74.5,9.3a7.408,7.408,0,0,0,3.025-2.554,6.625,6.625,0,0,0,1.12-3.811V2.817H70.241V-1.7H83.993V1.245A14.1,14.1,0,0,1,82.087,8.73a12.561,12.561,0,0,1-5.029,4.735A14.406,14.406,0,0,1,70.358,15.076Zm32.3,0a15.486,15.486,0,0,1-7.78-1.984,14.535,14.535,0,0,1-5.5-5.442,15.078,15.078,0,0,1-2-7.7,15.078,15.078,0,0,1,2-7.7,14.392,14.392,0,0,1,5.5-5.422,16.386,16.386,0,0,1,15.56,0,14.534,14.534,0,0,1,5.521,5.422,14.965,14.965,0,0,1,2.024,7.7,14.965,14.965,0,0,1-2.024,7.7,14.68,14.68,0,0,1-5.521,5.442A15.486,15.486,0,0,1,102.657,15.076ZM92.716-.052a10.742,10.742,0,0,0,1.3,5.265,9.408,9.408,0,0,0,3.556,3.674,10.493,10.493,0,0,0,10.177,0A9.408,9.408,0,0,0,111.3,5.213a10.742,10.742,0,0,0,1.3-5.265A10.631,10.631,0,0,0,111.3-5.3a9.444,9.444,0,0,0-3.556-3.654,9.92,9.92,0,0,0-5.088-1.316,9.92,9.92,0,0,0-5.088,1.316A9.444,9.444,0,0,0,94.012-5.3,10.631,10.631,0,0,0,92.716-.052Z" transform="translate(900.56 383.14)" fill="#032e5b"/><g transform="translate(-227 -84)"><rect width="45" height="12" rx="6" transform="translate(654 384)" fill="#e0efff" opacity="0.5"/><rect width="89" height="12" rx="6" transform="translate(770 384)" fill="#e0efff" opacity="0.5"/><rect width="86" height="12" rx="6" transform="translate(930 384)" fill="#e0efff" opacity="0.5"/><rect width="66" height="12" rx="6" transform="translate(1088 384)" fill="#e0efff" opacity="0.5"/><rect width="60" height="12" rx="6" transform="translate(1225 384)" fill="#e0efff" opacity="0.5"/><rect width="97" height="12" rx="6" transform="translate(1356 384)" fill="#e0efff" opacity="0.5"/><rect width="91" height="12" rx="6" transform="translate(1524 384)" fill="#e0efff" opacity="0.5"/><rect width="115" height="3" transform="translate(619 360)" fill="#fde433"/></g><g transform="translate(392 367.837)"><rect width="32" height="32" rx="16" transform="translate(0 0.163)" fill="#032e5b"/><rect width="161" height="12" rx="6" transform="translate(39 1.163)" fill="#032e5b" opacity="0.5"/><rect width="150" height="12" rx="6" transform="translate(39 20.163)" fill="#032e5b" opacity="0.5"/></g><rect width="27" height="26" rx="13" transform="translate(1495 293)" fill="#e0efff" opacity="0.5"/><g transform="translate(1320 367.837)"><rect width="32" height="32" rx="16" transform="translate(0 0.163)" fill="#032e5b"/><rect width="59" height="12" rx="6" transform="translate(39 1.163)" fill="#032e5b" opacity="0.5"/><rect width="161" height="12" rx="6" transform="translate(39 20.163)" fill="#032e5b" opacity="0.5"/></g><rect width="2" height="30" transform="translate(504 290)" fill="#e0efff" opacity="0.5"/><rect width="2" height="30" transform="translate(668 290)" fill="#e0efff" opacity="0.5"/><rect width="2" height="30" transform="translate(825 291)" fill="#e0efff" opacity="0.5"/><rect width="2" height="30" transform="translate(959 291)" fill="#e0efff" opacity="0.5"/><rect width="2" height="30" transform="translate(1092 291)" fill="#e0efff" opacity="0.5"/><rect width="2" height="30" transform="translate(1260 291)" fill="#e0efff" opacity="0.5"/><rect width="14" height="14" rx="7" transform="translate(1544 290)" fill="#fde433"/></g></svg>