<svg xmlns="http://www.w3.org/2000/svg" width="297" height="976" viewBox="0 0 297 976"><g transform="translate(-328 -1403)"><rect width="297" height="976" transform="translate(328 1403)" fill="#032e5b"/><g transform="translate(-287 1125)"><rect width="45" height="12" rx="6" transform="translate(654 384)" fill="#e0efff"/><rect width="57" height="12" rx="6" transform="translate(654 426)" fill="#e0efff" opacity="0.5"/><rect width="45" height="12" rx="6" transform="translate(654 468)" fill="#e0efff" opacity="0.5"/><rect width="47" height="12" rx="6" transform="translate(654 510)" fill="#e0efff" opacity="0.5"/><rect width="55" height="12" rx="6" transform="translate(654 552)" fill="#e0efff" opacity="0.5"/><rect width="109" height="12" rx="6" transform="translate(654 594)" fill="#e0efff" opacity="0.5"/><rect width="91" height="12" rx="6" transform="translate(654 636)" fill="#e0efff" opacity="0.5"/><rect width="58" height="12" rx="6" transform="translate(654 678)" fill="#e0efff" opacity="0.5"/><rect width="83" height="12" rx="6" transform="translate(654 720)" fill="#e0efff" opacity="0.5"/></g><rect width="20" height="20" rx="10" transform="translate(367 2249)" fill="#e0efff"/><rect width="20" height="20" rx="10" transform="translate(499 2249)" fill="#e0efff"/><rect width="20" height="20" rx="10" transform="translate(433 2249)" fill="#e0efff"/><rect width="20" height="20" rx="10" transform="translate(565 2249)" fill="#e0efff"/><rect width="152" height="12" rx="6" transform="translate(367 2320)" fill="#e0efff" opacity="0.5"/><rect width="191" height="12" rx="6" transform="translate(367 2296)" fill="#e0efff" opacity="0.5"/><rect width="218" height="59" transform="translate(367 1904)" fill="#fde433"/><rect width="146" height="12" rx="6" transform="translate(403 1928)" fill="#032e5b"/><g transform="translate(10.789 5.289)"><rect width="4" height="35" transform="translate(337.211 1420.54) rotate(-45)" fill="#fff"/><rect width="4" height="35" transform="translate(340.04 1445.289) rotate(-135)" fill="#fff"/></g></g></svg>